Shakespeare In Love 1998 720p BRRip H264 AAC-Rx(Phoenix-RG).mp4

Format : MPEG-4 / AVC
File size : 1.83 GiB
Duration : 2h 3mn
Bit rate : 1 800 Kbps
Maximum bit rate : 8 675 Kbps
Width : 1 280 pixels
Height : 544 pixels
Display aspect ratio : 2.35
Frame rate : 23.976 fps
Resolution : 24 bits
Colorimetry : 4:2:0
Scan type : Progressive
Bits/(Pixel*Frame) : 0.108
Stream size : 1.55 GiB (85%)

AUDIO:

Format : AAC / LC
Duration : 2h 3mn
Bit rate mode : Variable
Bit rate : 322 Kbps
Maximum bit rate : 397 Kbps
Channel(s) : 6 channels
Channel positions : Front: L C R, Rear: L R, LFE
Sampling rate : 48.0 KHz
Resolution : 16 bits
Stream size : 284 MiB (15%)


SCREEN:
 
http://img148.imageshack.us/img148/3728/vlcsnap2010092209h07m03.jpg
 
http://img15.imageshack.us/img15/3651/vlcsnap2010092209h07m46.jpg
 
http://img153.imageshack.us/img153/3835/vlcsnap2010092209h10m44.jpg